<svg width="562" height="229" viewBox="0 0 562 229" fill="none" xmlns="http://www.w3.org/2000/svg">
<rect x="195" y="93" width="30" height="15" rx="7.5" fill="white"/>
<path d="M196 8C196 3.58172 199.582 0 204 0H218C222.418 0 226 3.58172 226 8V78H196V8Z" fill="url(#paint0_linear_545_25)"/>
<circle cx="210.5" cy="23" r="10.5" fill="#FF7DA4"/>
<circle cx="210.5" cy="23" r="9.25" stroke="white" stroke-opacity="0.75" stroke-width="2.5"/>
<g filter="url(#filter0_b_545_25)">
<path d="M496.415 100.39C496.415 101.19 496.261 101.868 495.953 102.425C495.645 102.981 495.229 103.404 494.703 103.693C494.18 103.981 493.593 104.126 492.942 104.126C492.288 104.126 491.7 103.98 491.177 103.689C490.654 103.398 490.238 102.975 489.93 102.421C489.625 101.865 489.472 101.188 489.472 100.39C489.472 99.5898 489.625 98.9115 489.93 98.3552C490.238 97.7989 490.654 97.3763 491.177 97.0874C491.7 96.7986 492.288 96.6542 492.942 96.6542C493.593 96.6542 494.18 96.7986 494.703 97.0874C495.229 97.3763 495.645 97.7989 495.953 98.3552C496.261 98.9115 496.415 99.5898 496.415 100.39ZM494.618 100.39C494.618 99.9165 494.55 99.5164 494.415 99.1897C494.283 98.863 494.091 98.6156 493.84 98.4475C493.592 98.2794 493.292 98.1954 492.942 98.1954C492.594 98.1954 492.294 98.2794 492.043 98.4475C491.792 98.6156 491.599 98.863 491.464 99.1897C491.332 99.5164 491.266 99.9165 491.266 100.39C491.266 100.863 491.332 101.264 491.464 101.59C491.599 101.917 491.792 102.164 492.043 102.332C492.294 102.501 492.594 102.585 492.942 102.585C493.292 102.585 493.592 102.501 493.84 102.332C494.091 102.164 494.283 101.917 494.415 101.59C494.55 101.264 494.618 100.863 494.618 100.39ZM499.987 104.129C499.412 104.129 498.918 104.011 498.506 103.774C498.097 103.537 497.782 103.208 497.562 102.787C497.342 102.363 497.232 101.873 497.232 101.317C497.232 100.758 497.342 100.268 497.562 99.8467C497.784 99.4229 498.1 99.0927 498.51 98.8559C498.922 98.6192 499.413 98.5008 499.984 98.5008C500.488 98.5008 500.927 98.5919 501.301 98.7742C501.678 98.9565 501.971 99.2146 502.182 99.5484C502.395 99.8798 502.507 100.269 502.519 100.717H500.896C500.863 100.437 500.768 100.218 500.612 100.06C500.458 99.9011 500.257 99.8218 500.009 99.8218C499.807 99.8218 499.631 99.8786 499.479 99.9923C499.328 100.104 499.21 100.269 499.124 100.489C499.041 100.707 499 100.977 499 101.299C499 101.621 499.041 101.893 499.124 102.116C499.21 102.336 499.328 102.503 499.479 102.617C499.631 102.728 499.807 102.783 500.009 102.783C500.17 102.783 500.312 102.749 500.435 102.68C500.56 102.612 500.663 102.511 500.744 102.379C500.824 102.244 500.875 102.08 500.896 101.889H502.519C502.503 102.338 502.39 102.731 502.182 103.068C501.976 103.404 501.686 103.665 501.312 103.852C500.94 104.037 500.499 104.129 499.987 104.129ZM506.487 98.5718V99.8502H503.046V98.5718H506.487ZM503.767 97.265H505.503V102.311C505.503 102.418 505.52 102.504 505.553 102.57C505.588 102.634 505.639 102.68 505.705 102.709C505.772 102.735 505.851 102.748 505.943 102.748C506.01 102.748 506.079 102.742 506.153 102.73C506.229 102.716 506.285 102.704 506.323 102.695L506.586 103.948C506.503 103.972 506.386 104.002 506.235 104.037C506.085 104.073 505.907 104.095 505.698 104.104C505.291 104.123 504.942 104.076 504.651 103.962C504.362 103.846 504.141 103.667 503.987 103.423C503.835 103.179 503.762 102.872 503.767 102.503V97.265Z" fill="#D9D9D9"/>
<path d="M444.482 98.934C444.458 98.6736 444.353 98.4712 444.165 98.3268C443.981 98.18 443.717 98.1066 443.374 98.1066C443.146 98.1066 442.957 98.1362 442.805 98.1954C442.654 98.2546 442.54 98.3363 442.464 98.4404C442.389 98.5422 442.35 98.6594 442.347 98.792C442.343 98.9009 442.364 98.9968 442.411 99.0796C442.461 99.1625 442.532 99.2359 442.624 99.2998C442.719 99.3614 442.833 99.4158 442.965 99.4632C443.098 99.5105 443.247 99.5519 443.413 99.5874L444.038 99.7295C444.397 99.8076 444.715 99.9118 444.989 100.042C445.266 100.172 445.498 100.327 445.685 100.507C445.875 100.687 446.018 100.894 446.115 101.129C446.212 101.363 446.262 101.626 446.264 101.917C446.262 102.376 446.146 102.77 445.916 103.1C445.687 103.429 445.356 103.681 444.925 103.856C444.497 104.031 443.98 104.119 443.374 104.119C442.765 104.119 442.235 104.028 441.783 103.845C441.33 103.663 440.979 103.386 440.728 103.014C440.477 102.643 440.348 102.173 440.341 101.604H442.024C442.038 101.839 442.101 102.034 442.212 102.19C442.324 102.347 442.476 102.465 442.67 102.546C442.867 102.626 443.094 102.666 443.352 102.666C443.589 102.666 443.79 102.634 443.956 102.57C444.124 102.506 444.253 102.418 444.343 102.304C444.433 102.19 444.479 102.06 444.482 101.913C444.479 101.776 444.437 101.659 444.354 101.562C444.271 101.462 444.143 101.377 443.97 101.306C443.8 101.233 443.582 101.165 443.317 101.104L442.557 100.926C441.927 100.782 441.431 100.549 441.069 100.227C440.707 99.9023 440.527 99.4643 440.529 98.9127C440.527 98.4629 440.647 98.0687 440.891 97.7302C441.135 97.3917 441.473 97.1277 441.903 96.9383C442.334 96.7489 442.826 96.6542 443.377 96.6542C443.941 96.6542 444.429 96.7501 444.844 96.9418C445.26 97.1312 445.584 97.3976 445.813 97.7409C446.043 98.0841 446.16 98.4819 446.165 98.934H444.482ZM449.702 104.129C449.131 104.129 448.639 104.017 448.224 103.792C447.813 103.565 447.495 103.242 447.273 102.823C447.053 102.401 446.942 101.9 446.942 101.32C446.942 100.757 447.054 100.265 447.276 99.8431C447.499 99.4194 447.812 99.0903 448.217 98.8559C448.622 98.6192 449.099 98.5008 449.648 98.5008C450.037 98.5008 450.392 98.5612 450.714 98.6819C451.036 98.8026 451.314 98.9814 451.548 99.2181C451.783 99.4549 451.965 99.7472 452.095 100.095C452.225 100.441 452.29 100.837 452.29 101.285V101.718H447.55V100.71H450.675C450.672 100.525 450.629 100.36 450.543 100.216C450.458 100.072 450.341 99.9591 450.192 99.8786C450.045 99.7958 449.876 99.7544 449.684 99.7544C449.49 99.7544 449.316 99.7981 449.162 99.8857C449.008 99.971 448.886 100.088 448.796 100.237C448.706 100.384 448.659 100.551 448.654 100.738V101.764C448.654 101.987 448.698 102.182 448.786 102.35C448.873 102.516 448.997 102.645 449.158 102.737C449.319 102.83 449.511 102.876 449.734 102.876C449.888 102.876 450.027 102.854 450.153 102.812C450.278 102.769 450.386 102.707 450.476 102.624C450.566 102.541 450.633 102.439 450.678 102.318L452.273 102.364C452.206 102.722 452.061 103.033 451.836 103.298C451.613 103.561 451.321 103.766 450.959 103.913C450.597 104.057 450.178 104.129 449.702 104.129ZM453.177 106.072V98.5718H454.896V99.5058H454.949C455.02 99.3401 455.121 99.1802 455.251 99.0264C455.384 98.8725 455.552 98.747 455.756 98.6499C455.961 98.5505 456.208 98.5008 456.494 98.5008C456.873 98.5008 457.227 98.6002 457.556 98.7991C457.887 98.998 458.155 99.3045 458.358 99.7188C458.562 100.133 458.664 100.661 458.664 101.303C458.664 101.921 458.566 102.438 458.369 102.854C458.175 103.271 457.912 103.584 457.581 103.792C457.252 104 456.886 104.104 456.483 104.104C456.209 104.104 455.971 104.06 455.77 103.97C455.568 103.88 455.399 103.761 455.262 103.614C455.127 103.468 455.023 103.31 454.949 103.142H454.914V106.072H453.177ZM454.878 101.299C454.878 101.593 454.917 101.848 454.996 102.066C455.076 102.284 455.191 102.453 455.34 102.574C455.492 102.692 455.673 102.752 455.883 102.752C456.096 102.752 456.278 102.692 456.427 102.574C456.576 102.453 456.688 102.284 456.764 102.066C456.842 101.848 456.881 101.593 456.881 101.299C456.881 101.006 456.842 100.751 456.764 100.536C456.688 100.32 456.576 100.153 456.427 100.035C456.28 99.9165 456.099 99.8573 455.883 99.8573C455.67 99.8573 455.489 99.9153 455.34 100.031C455.191 100.147 455.076 100.313 454.996 100.528C454.917 100.744 454.878 101.001 454.878 101.299Z" fill="#D9D9D9"/>
<path d="M392.124 104.026H390.234L392.688 96.7536H395.028L397.482 104.026H395.593L393.885 98.586H393.828L392.124 104.026ZM391.871 101.164H395.82V102.499H391.871V101.164ZM401.784 101.672V98.5718H403.517V104.026H401.863V103.011H401.806C401.685 103.345 401.479 103.61 401.188 103.806C400.899 104 400.55 104.097 400.14 104.097C399.769 104.097 399.442 104.012 399.16 103.842C398.878 103.671 398.659 103.433 398.503 103.128C398.347 102.82 398.268 102.46 398.265 102.048V98.5718H400.002V101.707C400.004 102.003 400.082 102.237 400.236 102.407C400.39 102.578 400.6 102.663 400.865 102.663C401.038 102.663 401.193 102.625 401.33 102.549C401.47 102.471 401.58 102.359 401.66 102.212C401.743 102.063 401.784 101.883 401.784 101.672ZM407.165 106.185C406.647 106.185 406.203 106.113 405.834 105.969C405.464 105.824 405.174 105.627 404.964 105.376C404.753 105.125 404.626 104.841 404.584 104.524L406.228 104.431C406.259 104.542 406.315 104.64 406.398 104.722C406.483 104.805 406.594 104.869 406.729 104.914C406.866 104.959 407.027 104.982 407.211 104.982C407.503 104.982 407.743 104.911 407.932 104.769C408.124 104.629 408.22 104.384 408.22 104.033V103.075H408.16C408.091 103.243 407.987 103.393 407.847 103.526C407.707 103.658 407.533 103.762 407.325 103.838C407.119 103.914 406.882 103.952 406.615 103.952C406.217 103.952 405.853 103.859 405.521 103.675C405.192 103.488 404.928 103.199 404.729 102.808C404.533 102.415 404.434 101.91 404.434 101.292C404.434 100.655 404.536 100.131 404.74 99.7188C404.943 99.3045 405.21 98.998 405.539 98.7991C405.87 98.6002 406.227 98.5008 406.608 98.5008C406.894 98.5008 407.139 98.5505 407.343 98.6499C407.549 98.747 407.718 98.8725 407.851 99.0264C407.983 99.1802 408.084 99.3401 408.153 99.5058H408.202V98.5718H409.932V104.048C409.932 104.509 409.816 104.899 409.584 105.216C409.352 105.533 409.027 105.774 408.611 105.937C408.194 106.103 407.712 106.185 407.165 106.185ZM407.219 102.688C407.429 102.688 407.609 102.632 407.758 102.521C407.907 102.409 408.022 102.25 408.103 102.041C408.183 101.833 408.224 101.583 408.224 101.292C408.224 100.996 408.183 100.742 408.103 100.528C408.025 100.313 407.91 100.147 407.758 100.031C407.609 99.9153 407.429 99.8573 407.219 99.8573C407.003 99.8573 406.821 99.9165 406.672 100.035C406.523 100.153 406.409 100.32 406.331 100.536C406.255 100.749 406.217 101.001 406.217 101.292C406.217 101.583 406.256 101.833 406.334 102.041C406.412 102.25 406.525 102.409 406.672 102.521C406.821 102.632 407.003 102.688 407.219 102.688Z" fill="#D9D9D9"/>
<path d="M349.505 97.8259H351.238V102.854C351.236 103.325 351.123 103.737 350.901 104.09C350.678 104.44 350.37 104.713 349.977 104.907C349.587 105.101 349.134 105.198 348.621 105.198C348.166 105.198 347.753 105.119 347.381 104.96C347.012 104.802 346.717 104.555 346.497 104.222C346.279 103.888 346.172 103.46 346.174 102.94H347.925C347.932 103.127 347.967 103.286 348.031 103.419C348.098 103.549 348.189 103.647 348.305 103.714C348.421 103.78 348.559 103.813 348.72 103.813C348.888 103.813 349.03 103.778 349.146 103.707C349.262 103.633 349.35 103.525 349.409 103.383C349.471 103.241 349.503 103.065 349.505 102.854V97.8259ZM355.861 102.744V99.6441H357.594V105.099H355.939V104.083H355.882C355.761 104.417 355.555 104.682 355.264 104.878C354.975 105.073 354.626 105.17 354.216 105.17C353.845 105.17 353.518 105.084 353.236 104.914C352.955 104.744 352.736 104.506 352.579 104.2C352.423 103.892 352.344 103.533 352.341 103.121V99.6441H354.078V102.78C354.08 103.076 354.158 103.309 354.312 103.479C354.466 103.65 354.676 103.735 354.941 103.735C355.114 103.735 355.269 103.697 355.406 103.621C355.546 103.543 355.656 103.431 355.736 103.284C355.819 103.135 355.861 102.955 355.861 102.744ZM360.435 97.8259V105.099H358.699V97.8259H360.435Z" fill="#D9D9D9"/>
<path d="M301.505 96.7536H303.238V101.782C303.236 102.253 303.123 102.665 302.901 103.018C302.678 103.368 302.37 103.64 301.977 103.835C301.587 104.029 301.134 104.126 300.621 104.126C300.166 104.126 299.753 104.046 299.381 103.888C299.012 103.729 298.717 103.483 298.497 103.149C298.279 102.815 298.172 102.388 298.174 101.867H299.925C299.932 102.054 299.967 102.214 300.031 102.347C300.098 102.477 300.189 102.575 300.305 102.641C300.421 102.708 300.559 102.741 300.72 102.741C300.888 102.741 301.03 102.705 301.146 102.634C301.262 102.561 301.35 102.453 301.409 102.311C301.471 102.169 301.503 101.993 301.505 101.782V96.7536ZM307.861 101.672V98.5718H309.594V104.026H307.939V103.011H307.882C307.761 103.345 307.555 103.61 307.264 103.806C306.975 104 306.626 104.097 306.216 104.097C305.845 104.097 305.518 104.012 305.236 103.842C304.955 103.671 304.736 103.433 304.579 103.128C304.423 102.82 304.344 102.46 304.341 102.048V98.5718H306.078V101.707C306.08 102.003 306.158 102.237 306.312 102.407C306.466 102.578 306.676 102.663 306.941 102.663C307.114 102.663 307.269 102.625 307.406 102.549C307.546 102.471 307.656 102.359 307.736 102.212C307.819 102.063 307.861 101.883 307.861 101.672ZM312.435 100.916V104.026H310.699V98.5718H312.35V99.5732H312.411C312.531 99.2394 312.737 98.9778 313.028 98.7884C313.32 98.5967 313.666 98.5008 314.069 98.5008C314.452 98.5008 314.785 98.5872 315.067 98.76C315.351 98.9305 315.571 99.1696 315.727 99.4774C315.886 99.7828 315.964 100.14 315.962 100.55V104.026H314.225V100.891C314.228 100.588 314.151 100.351 313.994 100.18C313.84 100.01 313.626 99.9248 313.352 99.9248C313.169 99.9248 313.008 99.9651 312.869 100.046C312.731 100.124 312.625 100.236 312.549 100.383C312.476 100.53 312.438 100.707 312.435 100.916Z" fill="#D9D9D9"/>
<path d="M248.55 96.7536H250.727L252.574 101.256H252.659L254.506 96.7536H256.683V104.026H254.971V99.559H254.911L253.163 103.98H252.07L250.322 99.5342H250.262V104.026H248.55V96.7536ZM259.317 104.119C258.969 104.119 258.66 104.061 258.39 103.945C258.122 103.826 257.91 103.649 257.754 103.412C257.6 103.173 257.523 102.873 257.523 102.514C257.523 102.211 257.577 101.955 257.683 101.747C257.79 101.538 257.936 101.369 258.123 101.239C258.31 101.109 258.526 101.01 258.77 100.944C259.014 100.875 259.274 100.829 259.551 100.805C259.861 100.777 260.111 100.747 260.3 100.717C260.49 100.684 260.627 100.637 260.712 100.578C260.8 100.517 260.844 100.43 260.844 100.319V100.301C260.844 100.119 260.781 99.9781 260.655 99.8786C260.53 99.7792 260.361 99.7295 260.148 99.7295C259.918 99.7295 259.733 99.7792 259.594 99.8786C259.454 99.9781 259.365 100.115 259.327 100.291L257.726 100.234C257.773 99.9023 257.895 99.6064 258.091 99.346C258.29 99.0832 258.563 98.8772 258.908 98.7281C259.256 98.5766 259.674 98.5008 260.162 98.5008C260.51 98.5008 260.831 98.5422 261.124 98.6251C261.418 98.7056 261.673 98.824 261.891 98.9802C262.109 99.1341 262.277 99.3235 262.395 99.5484C262.516 99.7733 262.577 100.03 262.577 100.319V104.026H260.943V103.266H260.9C260.803 103.451 260.679 103.607 260.528 103.735C260.378 103.863 260.202 103.959 259.998 104.023C259.797 104.087 259.57 104.119 259.317 104.119ZM259.853 102.982C260.04 102.982 260.208 102.944 260.357 102.869C260.509 102.793 260.629 102.689 260.719 102.556C260.809 102.421 260.854 102.265 260.854 102.087V101.569C260.805 101.595 260.744 101.619 260.673 101.64C260.604 101.661 260.529 101.681 260.446 101.7C260.363 101.719 260.278 101.736 260.19 101.75C260.103 101.764 260.019 101.777 259.938 101.789C259.775 101.815 259.635 101.855 259.519 101.91C259.405 101.964 259.318 102.035 259.256 102.123C259.197 102.208 259.167 102.31 259.167 102.428C259.167 102.608 259.231 102.746 259.359 102.84C259.489 102.935 259.654 102.982 259.853 102.982ZM264.505 106.072C264.296 106.072 264.1 106.055 263.915 106.022C263.731 105.991 263.572 105.95 263.439 105.898L263.823 104.637C263.993 104.694 264.147 104.727 264.285 104.737C264.424 104.746 264.544 104.724 264.643 104.669C264.745 104.617 264.823 104.524 264.878 104.389L264.945 104.225L263.006 98.5718H264.824L265.829 102.464H265.886L266.905 98.5718H268.734L266.678 104.548C266.579 104.847 266.438 105.109 266.256 105.337C266.076 105.566 265.842 105.746 265.556 105.877C265.272 106.007 264.921 106.072 264.505 106.072Z" fill="#D9D9D9"/>
<path d="M202.124 104.026H200.234L202.688 96.7536H205.028L207.482 104.026H205.593L203.885 98.586H203.828L202.124 104.026ZM201.871 101.164H205.82V102.499H201.871V101.164ZM208.265 106.072V98.5718H209.984V99.5058H210.037C210.108 99.3401 210.209 99.1802 210.339 99.0264C210.472 98.8725 210.64 98.747 210.843 98.6499C211.049 98.5505 211.296 98.5008 211.582 98.5008C211.961 98.5008 212.315 98.6002 212.644 98.7991C212.975 98.998 213.243 99.3045 213.446 99.7188C213.65 100.133 213.752 100.661 213.752 101.303C213.752 101.921 213.654 102.438 213.457 102.854C213.263 103.271 213 103.584 212.669 103.792C212.34 104 211.974 104.104 211.571 104.104C211.297 104.104 211.059 104.06 210.858 103.97C210.656 103.88 210.487 103.761 210.35 103.614C210.215 103.468 210.111 103.31 210.037 103.142H210.002V106.072H208.265ZM209.966 101.299C209.966 101.593 210.005 101.848 210.083 102.066C210.164 102.284 210.279 102.453 210.428 102.574C210.579 102.692 210.761 102.752 210.971 102.752C211.184 102.752 211.365 102.692 211.515 102.574C211.664 102.453 211.776 102.284 211.852 102.066C211.93 101.848 211.969 101.593 211.969 101.299C211.969 101.006 211.93 100.751 211.852 100.536C211.776 100.32 211.664 100.153 211.515 100.035C211.368 99.9165 211.187 99.8573 210.971 99.8573C210.758 99.8573 210.577 99.9153 210.428 100.031C210.279 100.147 210.164 100.313 210.083 100.528C210.005 100.744 209.966 101.001 209.966 101.299ZM214.662 104.026V98.5718H216.349V99.5661H216.405C216.505 99.2063 216.667 98.9388 216.892 98.7636C217.117 98.586 217.378 98.4972 217.677 98.4972C217.757 98.4972 217.84 98.5032 217.925 98.515C218.01 98.5245 218.09 98.5399 218.163 98.5612V100.07C218.08 100.042 217.971 100.02 217.836 100.003C217.704 99.9864 217.586 99.9781 217.481 99.9781C217.275 99.9781 217.09 100.024 216.924 100.117C216.76 100.207 216.631 100.333 216.537 100.497C216.444 100.658 216.398 100.847 216.398 101.065V104.026H214.662Z" fill="black"/>
<path d="M151.55 96.7536H153.727L155.574 101.256H155.659L157.506 96.7536H159.683V104.026H157.971V99.559H157.911L156.163 103.98H155.07L153.322 99.5342H153.262V104.026H151.55V96.7536ZM162.317 104.119C161.969 104.119 161.66 104.061 161.39 103.945C161.122 103.826 160.91 103.649 160.754 103.412C160.6 103.173 160.523 102.873 160.523 102.514C160.523 102.211 160.577 101.955 160.683 101.747C160.79 101.538 160.936 101.369 161.123 101.239C161.31 101.109 161.526 101.01 161.77 100.944C162.014 100.875 162.274 100.829 162.551 100.805C162.861 100.777 163.111 100.747 163.3 100.717C163.49 100.684 163.627 100.637 163.712 100.578C163.8 100.517 163.844 100.43 163.844 100.319V100.301C163.844 100.119 163.781 99.9781 163.655 99.8786C163.53 99.7792 163.361 99.7295 163.148 99.7295C162.918 99.7295 162.733 99.7792 162.594 99.8786C162.454 99.9781 162.365 100.115 162.327 100.291L160.726 100.234C160.773 99.9023 160.895 99.6064 161.091 99.346C161.29 99.0832 161.563 98.8772 161.908 98.7281C162.256 98.5766 162.674 98.5008 163.162 98.5008C163.51 98.5008 163.831 98.5422 164.124 98.6251C164.418 98.7056 164.673 98.824 164.891 98.9802C165.109 99.1341 165.277 99.3235 165.395 99.5484C165.516 99.7733 165.577 100.03 165.577 100.319V104.026H163.943V103.266H163.9C163.803 103.451 163.679 103.607 163.528 103.735C163.378 103.863 163.202 103.959 162.998 104.023C162.797 104.087 162.57 104.119 162.317 104.119ZM162.853 102.982C163.04 102.982 163.208 102.944 163.357 102.869C163.509 102.793 163.629 102.689 163.719 102.556C163.809 102.421 163.854 102.265 163.854 102.087V101.569C163.805 101.595 163.744 101.619 163.673 101.64C163.604 101.661 163.529 101.681 163.446 101.7C163.363 101.719 163.278 101.736 163.19 101.75C163.103 101.764 163.019 101.777 162.938 101.789C162.775 101.815 162.635 101.855 162.519 101.91C162.405 101.964 162.318 102.035 162.256 102.123C162.197 102.208 162.167 102.31 162.167 102.428C162.167 102.608 162.231 102.746 162.359 102.84C162.489 102.935 162.654 102.982 162.853 102.982ZM166.638 104.026V98.5718H168.325V99.5661H168.382C168.481 99.2063 168.644 98.9388 168.868 98.7636C169.093 98.586 169.355 98.4972 169.653 98.4972C169.734 98.4972 169.817 98.5032 169.902 98.515C169.987 98.5245 170.066 98.5399 170.14 98.5612V100.07C170.057 100.042 169.948 100.02 169.813 100.003C169.68 99.9864 169.562 99.9781 169.458 99.9781C169.252 99.9781 169.066 100.024 168.9 100.117C168.737 100.207 168.608 100.333 168.513 100.497C168.421 100.658 168.375 100.847 168.375 101.065V104.026H166.638Z" fill="#D9D9D9"/>
<path d="M103.55 104.026V96.7536H108.515V98.1812H105.308V99.6727H108.199V101.104H105.308V104.026H103.55ZM110.85 104.119C110.502 104.119 110.193 104.061 109.923 103.945C109.655 103.826 109.444 103.649 109.287 103.412C109.133 103.173 109.056 102.873 109.056 102.514C109.056 102.211 109.11 101.955 109.216 101.747C109.323 101.538 109.47 101.369 109.657 101.239C109.844 101.109 110.059 101.01 110.303 100.944C110.547 100.875 110.807 100.829 111.084 100.805C111.394 100.777 111.644 100.747 111.833 100.717C112.023 100.684 112.16 100.637 112.245 100.578C112.333 100.517 112.377 100.43 112.377 100.319V100.301C112.377 100.119 112.314 99.9781 112.189 99.8786C112.063 99.7792 111.894 99.7295 111.681 99.7295C111.451 99.7295 111.266 99.7792 111.127 99.8786C110.987 99.9781 110.898 100.115 110.86 100.291L109.259 100.234C109.306 99.9023 109.428 99.6064 109.625 99.346C109.824 99.0832 110.096 98.8772 110.441 98.7281C110.789 98.5766 111.207 98.5008 111.695 98.5008C112.043 98.5008 112.364 98.5422 112.657 98.6251C112.951 98.7056 113.207 98.824 113.424 98.9802C113.642 99.1341 113.81 99.3235 113.929 99.5484C114.049 99.7733 114.11 100.03 114.11 100.319V104.026H112.476V103.266H112.434C112.337 103.451 112.212 103.607 112.061 103.735C111.912 103.863 111.735 103.959 111.532 104.023C111.33 104.087 111.103 104.119 110.85 104.119ZM111.386 102.982C111.573 102.982 111.741 102.944 111.89 102.869C112.042 102.793 112.163 102.689 112.252 102.556C112.342 102.421 112.387 102.265 112.387 102.087V101.569C112.338 101.595 112.277 101.619 112.206 101.64C112.138 101.661 112.062 101.681 111.979 101.7C111.896 101.719 111.811 101.736 111.723 101.75C111.636 101.764 111.552 101.777 111.471 101.789C111.308 101.815 111.168 101.855 111.052 101.91C110.939 101.964 110.851 102.035 110.789 102.123C110.73 102.208 110.701 102.31 110.701 102.428C110.701 102.608 110.765 102.746 110.892 102.84C111.023 102.935 111.187 102.982 111.386 102.982ZM115.172 104.026V96.7536H116.908V99.5058H116.944C117.015 99.3401 117.115 99.1802 117.245 99.0264C117.378 98.8725 117.546 98.747 117.75 98.6499C117.956 98.5505 118.202 98.5008 118.488 98.5008C118.867 98.5008 119.221 98.6002 119.55 98.7991C119.882 98.998 120.149 99.3045 120.353 99.7188C120.556 100.133 120.658 100.661 120.658 101.303C120.658 101.921 120.56 102.438 120.363 102.854C120.169 103.271 119.906 103.584 119.575 103.792C119.246 104 118.88 104.104 118.478 104.104C118.203 104.104 117.965 104.06 117.764 103.97C117.563 103.88 117.393 103.761 117.256 103.614C117.121 103.468 117.017 103.31 116.944 103.142H116.89V104.026H115.172ZM116.873 101.299C116.873 101.593 116.912 101.848 116.99 102.066C117.07 102.284 117.185 102.453 117.334 102.574C117.486 102.692 117.667 102.752 117.877 102.752C118.091 102.752 118.272 102.692 118.421 102.574C118.57 102.453 118.682 102.284 118.758 102.066C118.836 101.848 118.875 101.593 118.875 101.299C118.875 101.006 118.836 100.751 118.758 100.536C118.682 100.32 118.57 100.153 118.421 100.035C118.274 99.9165 118.093 99.8573 117.877 99.8573C117.664 99.8573 117.483 99.9153 117.334 100.031C117.185 100.147 117.07 100.313 116.99 100.528C116.912 100.744 116.873 101.001 116.873 101.299Z" fill="#D9D9D9"/>
<path d="M60.005 96.7536H61.7379V101.782C61.7356 102.253 61.6231 102.665 61.4006 103.018C61.178 103.368 60.8703 103.64 60.4773 103.835C60.0866 104.029 59.6345 104.126 59.1207 104.126C58.6662 104.126 58.2531 104.046 57.8814 103.888C57.5121 103.729 57.2173 103.483 56.9972 103.149C56.7794 102.815 56.6716 102.388 56.674 101.867H58.4247C58.4318 102.054 58.4673 102.214 58.5312 102.347C58.5975 102.477 58.6887 102.575 58.8047 102.641C58.9207 102.708 59.0592 102.741 59.2202 102.741C59.3883 102.741 59.5303 102.705 59.6463 102.634C59.7623 102.561 59.8499 102.453 59.9091 102.311C59.9706 102.169 60.0026 101.993 60.005 101.782V96.7536ZM64.3791 104.119C64.0311 104.119 63.7221 104.061 63.4522 103.945C63.1847 103.826 62.9728 103.649 62.8166 103.412C62.6627 103.173 62.5858 102.873 62.5858 102.514C62.5858 102.211 62.639 101.955 62.7456 101.747C62.8521 101.538 62.9989 101.369 63.1859 101.239C63.3729 101.109 63.5884 101.01 63.8322 100.944C64.0761 100.875 64.3365 100.829 64.6135 100.805C64.9236 100.777 65.1734 100.747 65.3627 100.717C65.5521 100.684 65.6895 100.637 65.7747 100.578C65.8623 100.517 65.9061 100.43 65.9061 100.319V100.301C65.9061 100.119 65.8433 99.9781 65.7179 99.8786C65.5924 99.7792 65.4231 99.7295 65.21 99.7295C64.9804 99.7295 64.7958 99.7792 64.6561 99.8786C64.5164 99.9781 64.4276 100.115 64.3897 100.291L62.7882 100.234C62.8355 99.9023 62.9574 99.6064 63.1539 99.346C63.3528 99.0832 63.6251 98.8772 63.9707 98.7281C64.3187 98.5766 64.7366 98.5008 65.2243 98.5008C65.5723 98.5008 65.8931 98.5422 66.1866 98.6251C66.4802 98.7056 66.7359 98.824 66.9537 98.9802C67.1715 99.1341 67.3395 99.3235 67.4579 99.5484C67.5787 99.7733 67.639 100.03 67.639 100.319V104.026H66.0055V103.266H65.9629C65.8658 103.451 65.7415 103.607 65.59 103.735C65.4409 103.863 65.2645 103.959 65.0609 104.023C64.8597 104.087 64.6324 104.119 64.3791 104.119ZM64.9153 102.982C65.1023 102.982 65.2704 102.944 65.4196 102.869C65.5711 102.793 65.6918 102.689 65.7818 102.556C65.8717 102.421 65.9167 102.265 65.9167 102.087V101.569C65.867 101.595 65.8066 101.619 65.7356 101.64C65.667 101.661 65.5912 101.681 65.5083 101.7C65.4255 101.719 65.3403 101.736 65.2527 101.75C65.1651 101.764 65.081 101.777 65.0005 101.789C64.8372 101.815 64.6975 101.855 64.5815 101.91C64.4679 101.964 64.3803 102.035 64.3187 102.123C64.2595 102.208 64.2299 102.31 64.2299 102.428C64.2299 102.608 64.2939 102.746 64.4217 102.84C64.5519 102.935 64.7164 102.982 64.9153 102.982ZM70.4373 100.916V104.026H68.7008V98.5718H70.3521V99.5732H70.4125C70.5332 99.2394 70.7392 98.9778 71.0304 98.7884C71.3216 98.5967 71.6684 98.5008 72.0708 98.5008C72.4544 98.5008 72.787 98.5872 73.0687 98.76C73.3528 98.9305 73.573 99.1696 73.7292 99.4774C73.8878 99.7828 73.966 100.14 73.9636 100.55V104.026H72.2271V100.891C72.2295 100.588 72.1525 100.351 71.9963 100.18C71.8424 100.01 71.6281 99.9248 71.3535 99.9248C71.1712 99.9248 71.0102 99.9651 70.8706 100.046C70.7333 100.124 70.6267 100.236 70.551 100.383C70.4776 100.53 70.4397 100.707 70.4373 100.916Z" fill="#D9D9D9"/>
</g>
<path d="M1 106.983V71.9851C1 70.9631 1.25326 69.9502 1.78865 69.0797C7.61876 59.6008 16.124 55.7959 22.4795 55.977L41.6575 55.6362C49.6356 55.6362 57.2557 50.7061 60.0685 48.241L83.8493 28.3314C94.589 18.7748 109.676 24.3495 115.301 29.4691L139.849 51.6542C153.964 57.5702 164.653 52.9815 168.233 51.6542L199.685 27.7625C213.186 18.6611 220.653 22.8325 228.068 28.9002L255.685 53.3607C269.186 61.5523 277.676 58.1012 283.301 55.6362L307.849 42.5525C316.134 38.0016 321.658 39.3289 327.027 42.5525L345.438 51.6542C363.849 57.5702 374.078 51.8438 376.89 48.241L399.137 24.9179C411.104 14.4507 426.242 20.367 429.822 23.7802L455.137 45.3968C466.184 51.3129 478.151 47.8618 482.753 45.3968L502.699 30.6068C511.904 24.6907 525.968 27.3833 531.082 28.9002L535.685 30.2647L541.822 32.5401L547.192 35.1576C556.704 39.936 560.489 47.4829 560.233 49.9479L561 107.971C554.249 124.354 537.219 127.692 529.548 127.312H398.37C381.8 127.312 374.589 138.69 373.055 144.378V206.383C368.759 221.856 347.74 227.242 337.767 228L217.329 226.862C197.69 224.132 190.224 210.176 188.945 203.539V144.378C187.104 132.546 170.79 128.45 163.63 127.312H31.6849C16.343 125.125 4.02699 116.801 1.28312 108.916C1.06741 108.296 1 107.639 1 106.983Z" fill="white" fill-opacity="0.08" stroke="url(#paint1_linear_545_25)" stroke-width="2"/>
<line x1="172.5" y1="127.5" x2="389.5" y2="127.5" stroke="white" stroke-opacity="0.15"/>
<line x1="68.5" y1="77.5" x2="491.5" y2="77.5" stroke="white" stroke-opacity="0.15"/>
<defs>
<filter id="filter0_b_545_25" x="52.6704" y="92.6543" width="457.916" height="17.5312" filterUnits="userSpaceOnUse" color-interpolation-filters="sRGB">
<feFlood flood-opacity="0" result="BackgroundImageFix"/>
<feGaussianBlur in="BackgroundImageFix" stdDeviation="2"/>
<feComposite in2="SourceAlpha" operator="in" result="effect1_backgroundBlur_545_25"/>
<feBlend mode="normal" in="SourceGraphic" in2="effect1_backgroundBlur_545_25" result="shape"/>
</filter>
<linearGradient id="paint0_linear_545_25" x1="211" y1="0" x2="211" y2="78" gradientUnits="userSpaceOnUse">
<stop stop-color="white" stop-opacity="0.25"/>
<stop offset="1" stop-color="white" stop-opacity="0.06"/>
</linearGradient>
<linearGradient id="paint1_linear_545_25" x1="281" y1="45.9651" x2="281" y2="113.659" gradientUnits="userSpaceOnUse">
<stop stop-color="#FF7DA4"/>
<stop offset="0.357851" stop-color="#FCBFD1" stop-opacity="0"/>
<stop offset="1" stop-color="#FAFFFD" stop-opacity="0.2"/>
</linearGradient>
</defs>
</svg>
