<svg width="400" height="400" viewBox="0 0 400 400" fill="none" xmlns="http://www.w3.org/2000/svg">
<rect width="400" height="400" fill="white"/>
<path d="M251.468 93.4881C279.468 102.191 295.468 134.655 298.968 149.488L254.468 158.488C246.468 124.488 209.135 122.321 191.468 125.488C176.135 126.655 144.868 141.788 142.468 192.988C140.068 244.188 165.135 265.655 177.968 269.988C210.368 285.588 244.135 268.488 256.968 257.988V229.488H206.468V192.988H301.968V279.988C268.968 314.988 173.468 332.488 128.468 284.988C83.4682 237.488 92.4682 149.488 128.468 114.988C164.468 80.4881 213.468 81.6772 251.468 93.4881Z" fill="black"/>
</svg>
