<svg width="309" height="267" viewBox="0 0 309 267" fill="none" xmlns="http://www.w3.org/2000/svg">
<rect x="0.268127" y="0.483643" width="308.369" height="266.093" fill="white"/>
<path d="M89.398 188.528L154.738 127.669L157.351 216.904C122.404 217.502 97.4877 198.236 89.398 188.528Z" fill="#7D6CBB"/>
<path d="M67.0501 142.868L156.205 126.579L89.7485 188.893C75.4111 175.153 68.5436 152.078 67.0501 142.868Z" fill="#8877BD"/>
<path d="M69.5297 100.891L156.371 126.745L66.8781 142.821C64.4885 125.198 67.5384 107.488 69.5297 100.891Z" fill="#9181BD"/>
<path d="M154.453 126.44V37.3129C101.882 37.3129 75.796 79.8935 69.3243 101.051L154.453 126.44Z" fill="#6957AF"/>
<path d="M236.594 161.164L154.453 126.814V37.205C173.868 37.9517 216.731 48.3313 232.86 83.8761C248.99 119.421 242.07 150.211 236.594 161.164Z" fill="#62549C"/>
<path d="M157.196 216.985L154.453 126.814L236.594 161.164C216.283 206.864 175.117 217.856 157.196 216.985Z" fill="#7566B5"/>
<path d="M227.71 78.5804L240.405 69.9929H256.086" stroke="#62549C"/>
<path d="M73.1351 43.4836L88.4433 43.4837L103.005 57.2984" stroke="#62549C"/>
<path d="M38.7851 123.011L52.5999 123.012H69.3244" stroke="#62549C"/>
<path d="M48.1194 174.537L63.4275 174.536L78.2853 165.576" stroke="#62549C"/>
<path d="M89.19 224.195H103.378L123.375 208.071" stroke="#62549C"/>
<path d="M234.431 214.114H220.243L204.396 197.99" stroke="#62549C"/>
<path d="M265.544 64.5593H266.601V70.3378C266.601 70.9343 266.46 71.467 266.179 71.9358C265.901 72.4017 265.507 72.7696 264.999 73.0395C264.49 73.3065 263.893 73.44 263.209 73.44C262.524 73.44 261.928 73.3065 261.419 73.0395C260.911 72.7696 260.516 72.4017 260.234 71.9358C259.956 71.467 259.817 70.9343 259.817 70.3378V64.5593H260.874V70.2525C260.874 70.6787 260.967 71.0579 261.155 71.3903C261.342 71.7199 261.609 71.9798 261.956 72.1701C262.305 72.3576 262.723 72.4514 263.209 72.4514C263.695 72.4514 264.112 72.3576 264.462 72.1701C264.811 71.9798 265.078 71.7199 265.263 71.3903C265.45 71.0579 265.544 70.6787 265.544 70.2525V64.5593ZM273.484 66.7412C273.433 66.3093 273.226 65.9741 272.862 65.7355C272.498 65.4968 272.052 65.3775 271.524 65.3775C271.137 65.3775 270.799 65.44 270.51 65.565C270.223 65.69 269.998 65.8619 269.836 66.0807C269.677 66.2994 269.598 66.548 269.598 66.8264C269.598 67.0593 269.653 67.2596 269.764 67.4272C269.877 67.592 270.022 67.7298 270.199 67.8406C270.375 67.9486 270.559 68.038 270.752 68.1091C270.946 68.1772 271.123 68.2326 271.285 68.2753L272.172 68.5139C272.399 68.5736 272.652 68.6559 272.93 68.7611C273.211 68.8662 273.48 69.0096 273.735 69.1915C273.994 69.3704 274.207 69.6005 274.375 69.8818C274.542 70.163 274.626 70.5082 274.626 70.9173C274.626 71.3889 274.502 71.815 274.255 72.1957C274.011 72.5764 273.653 72.879 273.181 73.1034C272.713 73.3278 272.143 73.44 271.473 73.44C270.848 73.44 270.306 73.3392 269.849 73.1375C269.395 72.9358 269.037 72.6545 268.775 72.2937C268.517 71.9329 268.37 71.5139 268.336 71.0366H269.427C269.456 71.3662 269.566 71.6389 269.76 71.8548C269.956 72.0679 270.203 72.227 270.501 72.3321C270.802 72.4343 271.126 72.4855 271.473 72.4855C271.876 72.4855 272.238 72.4201 272.559 72.2895C272.88 72.1559 273.135 71.9713 273.322 71.7355C273.51 71.4968 273.603 71.2184 273.603 70.9003C273.603 70.6105 273.522 70.3747 273.36 70.1929C273.199 70.0111 272.985 69.8633 272.721 69.7497C272.457 69.6361 272.172 69.5366 271.865 69.4514L270.791 69.1446C270.109 68.9486 269.569 68.6687 269.172 68.3051C268.774 67.9415 268.575 67.4656 268.575 66.8775C268.575 66.3889 268.707 65.9628 268.971 65.5991C269.238 65.2326 269.596 64.9486 270.045 64.7468C270.497 64.5423 271.001 64.44 271.558 64.44C272.12 64.44 272.62 64.5409 273.058 64.7426C273.495 64.9415 273.842 65.2142 274.098 65.5608C274.356 65.9074 274.493 66.3008 274.507 66.7412H273.484ZM276.722 73.2866H275.614L278.818 64.5593H279.909L283.114 73.2866H282.006L279.398 65.94H279.33L276.722 73.2866ZM277.131 69.8775H281.597V70.815H277.131V69.8775Z" fill="#62549C"/>
<path d="M237.728 216.406V207.679H240.779C241.387 207.679 241.888 207.784 242.283 207.994C242.678 208.202 242.972 208.482 243.165 208.834C243.359 209.183 243.455 209.571 243.455 209.997C243.455 210.372 243.388 210.682 243.255 210.926C243.124 211.17 242.951 211.364 242.735 211.506C242.522 211.648 242.29 211.753 242.04 211.821V211.906C242.308 211.923 242.576 212.017 242.846 212.188C243.116 212.358 243.342 212.602 243.523 212.92C243.705 213.239 243.796 213.628 243.796 214.088C243.796 214.526 243.697 214.919 243.498 215.268C243.299 215.618 242.985 215.895 242.556 216.099C242.127 216.304 241.569 216.406 240.881 216.406H237.728ZM238.785 215.469H240.881C241.572 215.469 242.062 215.335 242.352 215.068C242.644 214.798 242.79 214.472 242.79 214.088C242.79 213.793 242.715 213.52 242.565 213.27C242.414 213.017 242.2 212.815 241.921 212.665C241.643 212.511 241.313 212.435 240.933 212.435H238.785V215.469ZM238.785 211.514H240.745C241.063 211.514 241.35 211.452 241.606 211.327C241.864 211.202 242.069 211.026 242.219 210.798C242.373 210.571 242.45 210.304 242.45 209.997C242.45 209.614 242.316 209.288 242.049 209.021C241.782 208.751 241.359 208.616 240.779 208.616H238.785V211.514ZM245.396 216.406V209.861H246.368V210.849H246.436C246.555 210.526 246.771 210.263 247.084 210.061C247.396 209.859 247.749 209.759 248.141 209.759C248.214 209.759 248.307 209.76 248.418 209.763C248.528 209.766 248.612 209.77 248.669 209.776V210.798C248.635 210.79 248.557 210.777 248.435 210.76C248.315 210.74 248.189 210.73 248.055 210.73C247.737 210.73 247.453 210.797 247.203 210.93C246.956 211.061 246.76 211.243 246.615 211.476C246.473 211.706 246.402 211.969 246.402 212.264V216.406H245.396ZM251.787 216.56C251.372 216.56 250.996 216.482 250.658 216.325C250.32 216.166 250.051 215.938 249.853 215.639C249.654 215.338 249.554 214.974 249.554 214.548C249.554 214.173 249.628 213.869 249.776 213.636C249.924 213.401 250.121 213.216 250.368 213.082C250.615 212.949 250.888 212.849 251.186 212.784C251.488 212.716 251.79 212.662 252.094 212.622C252.492 212.571 252.814 212.533 253.061 212.507C253.311 212.479 253.493 212.432 253.607 212.366C253.723 212.301 253.782 212.187 253.782 212.026V211.991C253.782 211.571 253.667 211.244 253.436 211.011C253.209 210.778 252.864 210.662 252.401 210.662C251.921 210.662 251.544 210.767 251.272 210.977C250.999 211.187 250.807 211.412 250.696 211.651L249.742 211.31C249.912 210.912 250.14 210.602 250.424 210.381C250.711 210.156 251.023 210 251.361 209.912C251.702 209.821 252.037 209.776 252.367 209.776C252.577 209.776 252.819 209.801 253.091 209.852C253.367 209.901 253.632 210.001 253.888 210.155C254.147 210.308 254.361 210.54 254.532 210.849C254.702 211.159 254.787 211.574 254.787 212.094V216.406H253.782V215.52H253.73C253.662 215.662 253.549 215.814 253.39 215.976C253.23 216.138 253.019 216.276 252.755 216.389C252.49 216.503 252.168 216.56 251.787 216.56ZM251.941 215.656C252.338 215.656 252.674 215.578 252.946 215.422C253.222 215.266 253.429 215.064 253.569 214.817C253.711 214.57 253.782 214.31 253.782 214.037V213.116C253.739 213.168 253.645 213.214 253.5 213.257C253.358 213.297 253.194 213.332 253.006 213.364C252.821 213.392 252.641 213.418 252.465 213.44C252.292 213.46 252.151 213.477 252.043 213.491C251.782 213.526 251.537 213.581 251.31 213.658C251.086 213.732 250.904 213.844 250.765 213.994C250.628 214.142 250.56 214.344 250.56 214.599C250.56 214.949 250.689 215.213 250.948 215.392C251.209 215.568 251.54 215.656 251.941 215.656ZM256.435 216.406V215.639L260.151 210.866V210.798H256.555V209.861H261.447V210.662L257.833 215.401V215.469H261.566V216.406H256.435ZM263.115 216.406V209.861H264.121V216.406H263.115ZM263.626 208.77C263.43 208.77 263.261 208.703 263.119 208.57C262.98 208.436 262.91 208.276 262.91 208.088C262.91 207.901 262.98 207.74 263.119 207.607C263.261 207.473 263.43 207.406 263.626 207.406C263.822 207.406 263.99 207.473 264.129 207.607C264.271 207.74 264.342 207.901 264.342 208.088C264.342 208.276 264.271 208.436 264.129 208.57C263.99 208.703 263.822 208.77 263.626 208.77ZM266.968 207.679V216.406H265.963V207.679H266.968Z" fill="#62549C"/>
<path d="M46.3421 227.133V218.406H51.5751V219.343H47.3989V222.292H51.183V223.23H47.3989V227.133H46.3421ZM53.1784 227.133V220.588H54.15V221.576H54.2182C54.3375 221.252 54.5534 220.99 54.8659 220.788C55.1784 220.586 55.5307 220.485 55.9227 220.485C55.9966 220.485 56.0889 220.487 56.1997 220.49C56.3105 220.492 56.3943 220.497 56.4511 220.502V221.525C56.417 221.517 56.3389 221.504 56.2167 221.487C56.0974 221.467 55.971 221.457 55.8375 221.457C55.5193 221.457 55.2352 221.524 54.9852 221.657C54.738 221.788 54.542 221.97 54.3971 222.203C54.2551 222.433 54.1841 222.696 54.1841 222.991V227.133H53.1784ZM59.5694 227.286C59.1546 227.286 58.7782 227.208 58.4401 227.052C58.102 226.893 57.8336 226.664 57.6347 226.366C57.4358 226.065 57.3364 225.701 57.3364 225.275C57.3364 224.9 57.4103 224.596 57.558 224.363C57.7057 224.127 57.9032 223.943 58.1503 223.809C58.3975 223.676 58.6702 223.576 58.9685 223.511C59.2697 223.443 59.5722 223.389 59.8762 223.349C60.2739 223.298 60.5964 223.259 60.8435 223.234C61.0935 223.205 61.2753 223.159 61.389 223.093C61.5054 223.028 61.5637 222.914 61.5637 222.752V222.718C61.5637 222.298 61.4486 221.971 61.2185 221.738C60.9912 221.505 60.6461 221.389 60.183 221.389C59.7029 221.389 59.3265 221.494 59.0537 221.704C58.781 221.914 58.5893 222.139 58.4785 222.377L57.5239 222.036C57.6944 221.639 57.9216 221.329 58.2057 221.107C58.4927 220.883 58.8052 220.727 59.1432 220.639C59.4841 220.548 59.8194 220.502 60.1489 220.502C60.3591 220.502 60.6006 220.528 60.8733 220.579C61.1489 220.627 61.4145 220.728 61.6702 220.882C61.9287 221.035 62.1432 221.267 62.3137 221.576C62.4841 221.886 62.5694 222.301 62.5694 222.821V227.133H61.5637V226.247H61.5126C61.4444 226.389 61.3307 226.541 61.1716 226.703C61.0126 226.865 60.8009 227.002 60.5367 227.116C60.2725 227.23 59.9501 227.286 59.5694 227.286ZM59.7228 226.383C60.1205 226.383 60.4557 226.305 60.7285 226.149C61.004 225.992 61.2114 225.791 61.3506 225.544C61.4927 225.296 61.5637 225.036 61.5637 224.764V223.843C61.5211 223.894 61.4273 223.941 61.2824 223.984C61.1404 224.024 60.9756 224.059 60.7881 224.09C60.6035 224.119 60.4231 224.144 60.2469 224.167C60.0736 224.187 59.933 224.204 59.8251 224.218C59.5637 224.252 59.3194 224.308 59.0921 224.384C58.8677 224.458 58.6858 224.571 58.5466 224.721C58.4103 224.869 58.3421 225.071 58.3421 225.326C58.3421 225.676 58.4714 225.94 58.7299 226.119C58.9912 226.295 59.3222 226.383 59.7228 226.383ZM65.4106 223.196V227.133H64.405V220.588H65.3765V221.61H65.4618C65.6152 221.278 65.8481 221.011 66.1606 220.809C66.4731 220.605 66.8765 220.502 67.3709 220.502C67.814 220.502 68.2018 220.593 68.5342 220.775C68.8666 220.954 69.1251 221.227 69.3098 221.593C69.4944 221.957 69.5868 222.417 69.5868 222.974V227.133H68.5811V223.042C68.5811 222.528 68.4476 222.127 68.1805 221.84C67.9135 221.551 67.547 221.406 67.0811 221.406C66.7601 221.406 66.4731 221.475 66.2203 221.615C65.9703 221.754 65.7728 221.957 65.628 222.224C65.4831 222.491 65.4106 222.815 65.4106 223.196ZM74.0836 227.269C73.4699 227.269 72.9415 227.125 72.4983 226.835C72.0552 226.545 71.7143 226.146 71.4756 225.637C71.237 225.129 71.1177 224.548 71.1177 223.894C71.1177 223.23 71.2398 222.643 71.4841 222.134C71.7313 221.623 72.0751 221.224 72.5154 220.937C72.9586 220.647 73.4756 220.502 74.0665 220.502C74.5268 220.502 74.9415 220.588 75.3108 220.758C75.6802 220.929 75.9827 221.167 76.2185 221.474C76.4543 221.781 76.6006 222.139 76.6574 222.548H75.6518C75.5751 222.25 75.4046 221.985 75.1404 221.755C74.879 221.522 74.5268 221.406 74.0836 221.406C73.6915 221.406 73.3478 221.508 73.0523 221.713C72.7597 221.914 72.531 222.2 72.3662 222.569C72.2043 222.936 72.1233 223.366 72.1233 223.86C72.1233 224.366 72.2029 224.806 72.362 225.181C72.5239 225.556 72.7512 225.848 73.0438 226.055C73.3393 226.262 73.6858 226.366 74.0836 226.366C74.3449 226.366 74.5822 226.321 74.7952 226.23C75.0083 226.139 75.1887 226.008 75.3364 225.838C75.4841 225.667 75.5893 225.463 75.6518 225.224H76.6574C76.6006 225.61 76.46 225.958 76.2356 226.268C76.014 226.575 75.7199 226.819 75.3535 227.001C74.9898 227.18 74.5665 227.269 74.0836 227.269ZM80.8719 227.269C80.2412 227.269 79.6972 227.13 79.2398 226.852C78.7853 226.571 78.4344 226.179 78.1873 225.676C77.9429 225.17 77.8208 224.582 77.8208 223.911C77.8208 223.241 77.9429 222.65 78.1873 222.139C78.4344 221.625 78.7782 221.224 79.2185 220.937C79.6617 220.647 80.1787 220.502 80.7697 220.502C81.1106 220.502 81.4472 220.559 81.7796 220.673C82.112 220.786 82.4145 220.971 82.6873 221.227C82.96 221.48 83.1773 221.815 83.3393 222.232C83.5012 222.65 83.5822 223.164 83.5822 223.775V224.201H78.5367V223.332H82.5594C82.5594 222.963 82.4856 222.633 82.3378 222.343C82.1929 222.054 81.9856 221.825 81.7157 221.657C81.4486 221.49 81.1333 221.406 80.7697 221.406C80.3691 221.406 80.0225 221.505 79.7299 221.704C79.4401 221.9 79.2171 222.156 79.0608 222.471C78.9046 222.786 78.8265 223.125 78.8265 223.485V224.065C78.8265 224.559 78.9117 224.978 79.0822 225.322C79.2554 225.663 79.4955 225.923 79.8023 226.102C80.1091 226.278 80.4657 226.366 80.8719 226.366C81.1361 226.366 81.3748 226.329 81.5878 226.255C81.8037 226.179 81.9898 226.065 82.1461 225.914C82.3023 225.761 82.4231 225.571 82.5083 225.343L83.4799 225.616C83.3776 225.946 83.2057 226.235 82.9643 226.485C82.7228 226.732 82.4245 226.926 82.0694 227.065C81.7143 227.201 81.3151 227.269 80.8719 227.269Z" fill="#62549C"/>
<path d="M28.3421 178.576V169.848H31.3932C32.0012 169.848 32.5026 169.954 32.8975 170.164C33.2924 170.371 33.5864 170.651 33.7796 171.003C33.9728 171.353 34.0694 171.74 34.0694 172.167C34.0694 172.542 34.0026 172.851 33.8691 173.096C33.7384 173.34 33.5651 173.533 33.3492 173.675C33.1361 173.817 32.9046 173.922 32.6546 173.99V174.076C32.9216 174.093 33.1901 174.186 33.46 174.357C33.7299 174.527 33.9557 174.772 34.1376 175.09C34.3194 175.408 34.4103 175.797 34.4103 176.258C34.4103 176.695 34.3108 177.088 34.112 177.438C33.9131 177.787 33.5992 178.064 33.1702 178.269C32.7412 178.473 32.183 178.576 31.4955 178.576H28.3421ZM29.3989 177.638H31.4955C32.1858 177.638 32.6759 177.505 32.9657 177.238C33.2583 176.968 33.4046 176.641 33.4046 176.258C33.4046 175.962 33.3293 175.689 33.1787 175.439C33.0282 175.186 32.8137 174.985 32.5353 174.834C32.2569 174.681 31.9273 174.604 31.5466 174.604H29.3989V177.638ZM29.3989 173.684H31.3591C31.6773 173.684 31.9643 173.621 32.2199 173.496C32.4785 173.371 32.683 173.195 32.8336 172.968C32.987 172.74 33.0637 172.473 33.0637 172.167C33.0637 171.783 32.9302 171.458 32.6631 171.191C32.3961 170.921 31.9728 170.786 31.3932 170.786H29.3989V173.684ZM38.84 178.576H36.1468V169.848H38.9593C39.8059 169.848 40.5303 170.023 41.1326 170.373C41.7349 170.719 42.1965 171.218 42.5175 171.868C42.8385 172.516 42.9991 173.292 42.9991 174.195C42.9991 175.104 42.8371 175.887 42.5133 176.543C42.1894 177.196 41.7178 177.699 41.0985 178.052C40.4792 178.401 39.7263 178.576 38.84 178.576ZM37.2036 177.638H38.7718C39.4934 177.638 40.0914 177.499 40.5658 177.221C41.0402 176.942 41.3939 176.546 41.6269 176.032C41.8599 175.517 41.9763 174.905 41.9763 174.195C41.9763 173.49 41.8613 172.884 41.6312 172.375C41.401 171.864 41.0573 171.472 40.5999 171.199C40.1425 170.924 39.5729 170.786 38.8911 170.786H37.2036V177.638Z" fill="#62549C"/>
<path d="M24.5694 116.086H25.6262V121.865C25.6262 122.461 25.4856 122.994 25.2043 123.463C24.9259 123.929 24.5324 124.297 24.0239 124.567C23.5154 124.834 22.9188 124.967 22.2341 124.967C21.5495 124.967 20.9529 124.834 20.4444 124.567C19.9358 124.297 19.541 123.929 19.2597 123.463C18.9813 122.994 18.8421 122.461 18.8421 121.865V116.086H19.8989V121.78C19.8989 122.206 19.9927 122.585 20.1802 122.917C20.3677 123.247 20.6347 123.507 20.9813 123.697C21.3307 123.885 21.7483 123.978 22.2341 123.978C22.7199 123.978 23.1376 123.885 23.487 123.697C23.8364 123.507 24.1035 123.247 24.2881 122.917C24.4756 122.585 24.5694 122.206 24.5694 121.78V116.086ZM27.7366 124.814V116.086H28.7934V120.416H28.8957L32.8162 116.086H34.1969L30.5321 120.024L34.1969 124.814H32.9184L29.8844 120.757L28.7934 121.984V124.814H27.7366Z" fill="#62549C"/>
<path d="M42.733 37.6638V46.3911H41.6762V37.6638H42.733ZM45.7213 42.4536V46.3911H44.7156V39.8457H45.6872V40.8684H45.7724C45.9258 40.536 46.1588 40.269 46.4713 40.0672C46.7838 39.8627 47.1872 39.7604 47.6815 39.7604C48.1247 39.7604 48.5125 39.8513 48.8449 40.0332C49.1772 40.2121 49.4358 40.4849 49.6204 40.8513C49.8051 41.215 49.8974 41.6752 49.8974 42.232V46.3911H48.8917V42.3002C48.8917 41.786 48.7582 41.3854 48.4912 41.0985C48.2241 40.8087 47.8576 40.6638 47.3917 40.6638C47.0707 40.6638 46.7838 40.7334 46.5309 40.8726C46.2809 41.0119 46.0835 41.215 45.9386 41.482C45.7937 41.7491 45.7213 42.0729 45.7213 42.4536ZM54.2067 46.5275C53.6613 46.5275 53.1797 46.3897 52.7621 46.1141C52.3445 45.8357 52.0178 45.4437 51.782 44.938C51.5462 44.4295 51.4283 43.8286 51.4283 43.1354C51.4283 42.4479 51.5462 41.8513 51.782 41.3457C52.0178 40.84 52.3459 40.4494 52.7664 40.1738C53.1868 39.8982 53.6726 39.7604 54.2238 39.7604C54.6499 39.7604 54.9865 39.8315 55.2337 39.9735C55.4837 40.1127 55.674 40.2718 55.8047 40.4508C55.9382 40.6269 56.0419 40.7718 56.1158 40.8854H56.201V37.6638H57.2067V46.3911H56.2351V45.3854H56.1158C56.0419 45.5047 55.9368 45.6553 55.8005 45.8371C55.6641 46.0161 55.4695 46.1766 55.2167 46.3187C54.9638 46.4579 54.6272 46.5275 54.2067 46.5275ZM54.3431 45.6241C54.7465 45.6241 55.0874 45.519 55.3658 45.3087C55.6442 45.0957 55.8559 44.8016 56.0007 44.4266C56.1456 44.0488 56.2181 43.6127 56.2181 43.1184C56.2181 42.6297 56.1471 42.2022 56.005 41.8357C55.863 41.4664 55.6527 41.1795 55.3743 40.9749C55.0959 40.7675 54.7522 40.6638 54.3431 40.6638C53.9169 40.6638 53.5618 40.7732 53.2777 40.992C52.9965 41.2079 52.7848 41.5019 52.6428 41.8741C52.5036 42.2434 52.434 42.6582 52.434 43.1184C52.434 43.5843 52.505 44.0076 52.6471 44.3883C52.7919 44.7661 53.005 45.0672 53.2863 45.2917C53.5703 45.5133 53.9226 45.6241 54.3431 45.6241ZM59.1882 46.3911V39.8457H60.1939V46.3911H59.1882ZM59.6996 38.7547C59.5036 38.7547 59.3346 38.688 59.1925 38.5545C59.0533 38.4209 58.9837 38.2604 58.9837 38.0729C58.9837 37.8854 59.0533 37.7249 59.1925 37.5914C59.3346 37.4579 59.5036 37.3911 59.6996 37.3911C59.8956 37.3911 60.0632 37.4579 60.2025 37.5914C60.3445 37.7249 60.4155 37.8854 60.4155 38.0729C60.4155 38.2604 60.3445 38.4209 60.2025 38.5545C60.0632 38.688 59.8956 38.7547 59.6996 38.7547ZM63.962 46.5445C63.5473 46.5445 63.1708 46.4664 62.8328 46.3101C62.4947 46.1511 62.2262 45.9224 62.0274 45.6241C61.8285 45.3229 61.7291 44.9593 61.7291 44.5332C61.7291 44.1582 61.8029 43.8542 61.9507 43.6212C62.0984 43.3854 62.2958 43.2008 62.543 43.0672C62.7902 42.9337 63.0629 42.8343 63.3612 42.769C63.6623 42.7008 63.9649 42.6468 64.2689 42.607C64.6666 42.5559 64.989 42.5175 65.2362 42.492C65.4862 42.4636 65.668 42.4167 65.7816 42.3513C65.8981 42.286 65.9564 42.1724 65.9564 42.0104V41.9763C65.9564 41.5559 65.8413 41.2292 65.6112 40.9962C65.3839 40.7633 65.0387 40.6468 64.5757 40.6468C64.0956 40.6468 63.7191 40.7519 63.4464 40.9621C63.1737 41.1724 62.9819 41.3968 62.8711 41.6354L61.9166 41.2945C62.087 40.8968 62.3143 40.5871 62.5984 40.3655C62.8853 40.1411 63.1978 39.9849 63.5359 39.8968C63.8768 39.8059 64.212 39.7604 64.5416 39.7604C64.7518 39.7604 64.9933 39.786 65.266 39.8371C65.5416 39.8854 65.8072 39.9863 66.0629 40.1397C66.3214 40.2931 66.5359 40.5246 66.7064 40.8343C66.8768 41.144 66.962 41.5587 66.962 42.0786V46.3911H65.9564V45.5047H65.9052C65.837 45.6468 65.7234 45.7988 65.5643 45.9607C65.4052 46.1226 65.1936 46.2604 64.9294 46.3741C64.6652 46.4877 64.3427 46.5445 63.962 46.5445ZM64.1154 45.6411C64.5132 45.6411 64.8484 45.563 65.1211 45.4067C65.3967 45.2505 65.6041 45.0488 65.7433 44.8016C65.8853 44.5545 65.9564 44.2945 65.9564 44.0218V43.1013C65.9137 43.1525 65.82 43.1994 65.6751 43.242C65.5331 43.2817 65.3683 43.3172 65.1808 43.3485C64.9961 43.3769 64.8157 43.4025 64.6396 43.4252C64.4663 43.4451 64.3257 43.4621 64.2177 43.4763C63.9564 43.5104 63.712 43.5658 63.4848 43.6425C63.2603 43.7164 63.0785 43.8286 62.9393 43.9792C62.8029 44.1269 62.7348 44.3286 62.7348 44.5843C62.7348 44.9337 62.864 45.1979 63.1226 45.3769C63.3839 45.553 63.7149 45.6411 64.1154 45.6411Z" fill="#62549C"/>
</svg>
