<svg width="305" height="188" viewBox="0 0 305 188" fill="none" xmlns="http://www.w3.org/2000/svg">
<rect x="1" width="304" height="188" fill="white"/>
<path d="M74 125.5C52.8 93.1 16.5 114.667 1 129.5V187.5H304.5V6C282.9 6 263.167 19.6667 256 26.5C242.8 34.5 231.167 67.1667 227 82.5C221.167 98.8333 203.1 124.6 177.5 97C151.9 69.4 130.5 108.5 123 131.5C105.4 169.5 83 143.333 74 125.5Z" fill="#E9E2F0"/>
<path d="M1 129.5C16.5 114.667 52.8 93.1 74 125.5C83 143.333 105.4 169.5 123 131.5C130.5 108.5 151.9 69.4 177.5 97C203.1 124.6 221.167 98.8333 227 82.5C231.167 67.1667 242.8 34.5 256 26.5C263.167 19.6667 282.9 6 304.5 6" stroke="#A460E9"/>
<circle cx="51.5" cy="109" r="2.5" fill="#A460E9"/>
<circle cx="102.5" cy="151" r="2.5" fill="#A460E9"/>
<circle cx="154.5" cy="88" r="2.5" fill="#A460E9"/>
<circle cx="205.5" cy="108" r="2.5" fill="#A460E9"/>
<circle cx="256.5" cy="26" r="2.5" fill="#A460E9"/>
</svg>
